PathFileType	4	(X/Y/Z)	C:/Users/beibeiliu/ov580/test_trc\sequence.4_training_dense_left.trc
DataRate	CameraRate	NumFrames	NumMarkers	Units	OrigDataRate	OrigDataStartFrame	OrigNumFrames
120	120	7	19	mm	120	162	258
Frame#	Time	ThumbCMC			ThumbMCP			ThumbIP			ThumbTip			IndexMCP			IndexPIP			IndexTip			MiddleMCP			MiddlePIP			MiddleTip			RingMCP			RingPIP			RingTip			PinkyMCP			PinkyPIP			PinkyTip			BackHand1			BackHand2			BackHand3	
		X0	Y0	Z0	X1	Y1	Z1	X2	Y2	Z2	X3	Y3	Z3	X4	Y4	Z4	X5	Y5	Z5	X6	Y6	Z6	X7	Y7	Z7	X8	Y8	Z8	X9	Y9	Z9	X10	Y10	Z10	X11	Y11	Z11	X12	Y12	Z12	X13	Y13	Z13	X14	Y14	Z14	X15	Y15	Z15	X16	Y16	Z16	X17	Y17	Z17	X18	Y18	Z18	
161	1.34167	-224.803	-14.0001	13.7936	-226.164	6.96225	-14.7747	-208.121	9.39093	-34.4942	-181.426	8.2841	-40.3417	-215.378	-18.59	-52.4174	-212.972	-12.2389	-73.7208	-204.741	-0.537794	-97.5792	-188.091	-6.06415	-48.9166	-182.179	24.141	-46.2395	-188.621	26.0286	-13.9037	-171.231	1.67968	-35.7174	-179.959	20.175	-18.315	-187.029	0.674334	2.72893	-160.006	-5.30618	-23.9513	-169.6	14.0431	-11.2867	-179.552	-1.36043	7.97153	-181.795	-39.7082	-9.61339	-184.65	-46.8601	17.196	-207.693	-41.361	1.02467	
162	1.35	-225.879	-15.1395	12.822	-226.989	4.06197	-15.2682	-214.192	9.9994	-34.4431	-189.742	6.81809	-42.898	-219.124	-23.9914	-52.3458	-212.644	-18.7182	-78.1861	-209.484	-10.572	-99.9223	-190.447	-9.05649	-52.9566	-187.231	21.8186	-48.0193	-192.397	23.1252	-17.4324	-176.089	-1.1338	-37.6259	-178.526	16.0548	-20.3498	-188.034	1.46624	0.894297	-161.762	-7.31886	-27.3617	-167.966	10.9734	-11.0658	-182.395	-7.03721	6.98083	-184.884	-43.7894	-6.85961	-189.495	-49.0815	17.6969	-215.78	-42.1516	4.49292	
163	1.35833	-229.19	-13.6385	12.4354	-228.841	3.79949	-10.7198	-217.574	8.63542	-37.8105	-198.756	10.2095	-49.4403	-221.115	-27.1792	-51.3871	-217.196	-25.0388	-76.1374	-215.32	-20.4875	-96.2671	-194.587	-13.9758	-52.2102	-184.954	12.4854	-49.9172	-193.483	16.9751	-19.0832	-176.765	-11.5287	-37.5044	-179.747	11.9312	-25.7318	-192.566	-1.19815	-1.97599	-166.265	-15.3019	-27.0341	-171.065	6.03223	-15.8709	-182.497	-5.3744	2.71378	-188.52	-48.7892	-4.30875	-196.173	-49.878	22.6169	-218.853	-41.8011	7.98019	
164	1.36667	-228.732	-13.525	12.8427	-227.463	4.64964	-10.3528	-217.328	6.76982	-34.3953	-204.221	10.6754	-53.1261	-226.955	-30.9921	-51.3551	-225.73	-29.7535	-73.3557	-221.805	-27.1764	-93.0656	-200.465	-20.2385	-50.234	-188.378	8.30997	-47.8867	-194.993	6.88324	-15.5737	-180.551	-16.6247	-38.7127	-178.225	7.0647	-26.1082	-192.015	-1.68933	-4.30392	-166.885	-22.4146	-26.7594	-175.147	1.06999	-17.6898	-189.403	-10.9877	1.58601	-191.88	-49.6369	-1.67304	-195.51	-52.142	26.9955	-221.37	-44.0789	6.80286	
165	1.375	-232.047	-12.4303	13.6925	-226.908	2.79839	-10.3419	-218.586	6.15411	-35.6315	-205.044	6.82438	-52.9274	-233.019	-34.2721	-44.8486	-228.823	-34.8787	-71.5862	-227.083	-34.4048	-91.967	-202.084	-24.5924	-49.4714	-191.956	4.25249	-46.0334	-200.862	3.56597	-16.3329	-188.172	-21.0084	-40.0299	-184.709	2.95853	-26.9631	-194.828	-5.21599	-4.49486	-174.424	-25.8793	-29.5772	-172.303	-4.31915	-19.6734	-188.451	-12.3035	-1.00421	-196.665	-55.3006	0.254275	-202.383	-54.0358	25.5318	-222.802	-46.9791	10.879	
166	1.38333	-233.52	-9.20717	15.9981	-228.538	6.66893	-9.88837	-222.516	8.90837	-35.93	-206.291	2.13611	-50.8993	-238.762	-34.4347	-41.0063	-238.512	-36.3748	-67.6135	-241.778	-35.765	-91.3309	-209.325	-26.6424	-50.4155	-196.145	-0.501898	-46.2462	-201.152	-1.53922	-14.312	-189.23	-29.8953	-39.4026	-186.906	-3.85982	-30.6649	-192.152	-9.21343	-4.52316	-176.014	-31.2449	-30.0706	-180.051	-9.86547	-20.2303	-188.924	-15.2466	1.7669	-202.578	-57.7037	3.16089	-207.357	-52.6871	29.9049	-230.883	-42.2708	12.7136	
167	1.39167	-232.745	-6.48878	21.6674	-228.086	5.41683	-10.3983	-223.729	9.49997	-31.8094	-208.916	2.22059	-53.2597	-246.999	-36.0054	-40.8572	-247.096	-38.3978	-63.729	-249.575	-38.7822	-85.8067	-214.446	-31.1095	-46.9278	-199.921	-6.73992	-47.7684	-200.497	-6.79886	-13.6506	-199.533	-34.2755	-37.2365	-188.434	-8.25008	-30.9609	-195.238	-12.9879	-3.14248	-186.125	-39.1245	-29.45	-178.823	-16.3229	-22.3985	-188.703	-17.0062	2.20243	-210.142	-58.9724	3.70056	-209.421	-52.757	32.2866	-234.064	-40.4989	15.7753	
